<svg xmlns="http://www.w3.org/2000/svg" width="760" height="480" viewBox="0 0 760 480">
<rect width="100%" height="100%" fill="white"/>
<text x="380.0" y="32" text-anchor="middle" font-size="19" font-family="sans-serif">Validation Force RMSE (uncertainty vs random)</text>
<line x1="95" y1="405.0" x2="720" y2="405.0" stroke="#e8e8e8" stroke-width="0.5"/>
<line x1="95" y1="336.0" x2="720" y2="336.0" stroke="#e8e8e8" stroke-width="0.5"/>
<line x1="95" y1="267.0" x2="720" y2="267.0" stroke="#e8e8e8" stroke-width="0.5"/>
<line x1="95" y1="198.0" x2="720" y2="198.0" stroke="#e8e8e8" stroke-width="0.5"/>
<line x1="95" y1="129.0" x2="720" y2="129.0" stroke="#e8e8e8" stroke-width="0.5"/>
<line x1="95" y1="60.0" x2="720" y2="60.0" stroke="#e8e8e8" stroke-width="0.5"/>
<line x1="95" y1="60" x2="95" y2="405" stroke="black" stroke-width="1.5"/>
<line x1="95" y1="405" x2="720" y2="405" stroke="black" stroke-width="1.5"/>
<line x1="95.0" y1="405" x2="95.0" y2="411" stroke="black"/>
<text x="95.0" y="428" text-anchor="middle" font-size="13" font-family="sans-serif">0</text>
<line x1="303.3" y1="405" x2="303.3" y2="411" stroke="black"/>
<text x="303.3" y="428" text-anchor="middle" font-size="13" font-family="sans-serif">1</text>
<line x1="511.7" y1="405" x2="511.7" y2="411" stroke="black"/>
<text x="511.7" y="428" text-anchor="middle" font-size="13" font-family="sans-serif">2</text>
<line x1="720.0" y1="405" x2="720.0" y2="411" stroke="black"/>
<text x="720.0" y="428" text-anchor="middle" font-size="13" font-family="sans-serif">3</text>
<line x1="89" y1="405.0" x2="95" y2="405.0" stroke="black"/>
<text x="85" y="409.0" text-anchor="end" font-size="12" font-family="sans-serif">0.152</text>
<line x1="89" y1="336.0" x2="95" y2="336.0" stroke="black"/>
<text x="85" y="340.0" text-anchor="end" font-size="12" font-family="sans-serif">0.166</text>
<line x1="89" y1="267.0" x2="95" y2="267.0" stroke="black"/>
<text x="85" y="271.0" text-anchor="end" font-size="12" font-family="sans-serif">0.18</text>
<line x1="89" y1="198.0" x2="95" y2="198.0" stroke="black"/>
<text x="85" y="202.0" text-anchor="end" font-size="12" font-family="sans-serif">0.193</text>
<line x1="89" y1="129.0" x2="95" y2="129.0" stroke="black"/>
<text x="85" y="133.0" text-anchor="end" font-size="12" font-family="sans-serif">0.207</text>
<line x1="89" y1="60.0" x2="95" y2="60.0" stroke="black"/>
<text x="85" y="64.0" text-anchor="end" font-size="12" font-family="sans-serif">0.221</text>
<text x="407.5" y="460" text-anchor="middle" font-size="14" font-family="sans-serif">Active learning round</text>
<text x="22" y="232.5" text-anchor="middle" font-size="14" font-family="sans-serif" transform="rotate(-90 22 232.5)">Force RMSE / eV/A</text>
<line x1="303.3" y1="-163.9" x2="303.3" y2="383.3" stroke="#d62728" stroke-width="1.8" opacity="0.4"/>
<line x1="295.3" y1="-163.9" x2="311.3" y2="-163.9" stroke="#d62728" stroke-width="1.8" opacity="0.4"/>
<line x1="295.3" y1="383.3" x2="311.3" y2="383.3" stroke="#d62728" stroke-width="1.8" opacity="0.4"/>
<polyline points="95.0,254.1 303.3,355.3 511.7,195.9 720.0,293.2" fill="none" stroke="#1f77b4" stroke-width="2.5"/>
<circle cx="95.0" cy="254.1" r="4.5" fill="#1f77b4"/>
<circle cx="303.3" cy="355.3" r="4.5" fill="#1f77b4"/>
<circle cx="511.7" cy="195.9" r="4.5" fill="#1f77b4"/>
<circle cx="720.0" cy="293.2" r="4.5" fill="#1f77b4"/>
<circle cx="303.3" cy="109.7" r="4.5" fill="#d62728"/>
<line x1="490" y1="72" x2="518" y2="72" stroke="#1f77b4" stroke-width="2.5"/>
<circle cx="504" cy="72" r="4" fill="#1f77b4"/>
<text x="526" y="77" font-size="13" font-family="sans-serif">Uncertainty</text>
<line x1="490" y1="98" x2="518" y2="98" stroke="#d62728" stroke-width="2.5"/>
<circle cx="504" cy="98" r="4" fill="#d62728"/>
<text x="526" y="103" font-size="13" font-family="sans-serif">Random (mean)</text>
</svg>