<svg xmlns="http://www.w3.org/2000/svg" width="760" height="480" viewBox="0 0 760 480">
<rect width="100%" height="100%" fill="white"/>
<text x="380.0" y="32" text-anchor="middle" font-size="18" font-family="Arial" font-weight="bold">rMD17 Benzene — Four-Strategy Force RMSE (Validation, 3-seed mean)</text>
<line x1="90" y1="60" x2="90" y2="410" stroke="black" stroke-width="1.5"/>
<line x1="90" y1="410" x2="720" y2="410" stroke="black" stroke-width="1.5"/>
<line x1="90.0" y1="410" x2="90.0" y2="416" stroke="black"/>
<text x="90.0" y="432" text-anchor="middle" font-size="13" font-family="Arial">1</text>
<line x1="405.0" y1="410" x2="405.0" y2="416" stroke="black"/>
<text x="405.0" y="432" text-anchor="middle" font-size="13" font-family="Arial">2</text>
<line x1="720.0" y1="410" x2="720.0" y2="416" stroke="black"/>
<text x="720.0" y="432" text-anchor="middle" font-size="13" font-family="Arial">3</text>
<line x1="84" y1="410.0" x2="90" y2="410.0" stroke="black"/>
<text x="80" y="414.0" text-anchor="end" font-size="12" font-family="Arial">0.1784</text>
<line x1="90" y1="410.0" x2="720" y2="410.0" stroke="#ddd" stroke-width="0.5"/>
<line x1="84" y1="322.49999999999994" x2="90" y2="322.49999999999994" stroke="black"/>
<text x="80" y="326.49999999999994" text-anchor="end" font-size="12" font-family="Arial">0.1889</text>
<line x1="90" y1="322.49999999999994" x2="720" y2="322.49999999999994" stroke="#ddd" stroke-width="0.5"/>
<line x1="84" y1="234.9999999999999" x2="90" y2="234.9999999999999" stroke="black"/>
<text x="80" y="238.9999999999999" text-anchor="end" font-size="12" font-family="Arial">0.1995</text>
<line x1="90" y1="234.9999999999999" x2="720" y2="234.9999999999999" stroke="#ddd" stroke-width="0.5"/>
<line x1="84" y1="147.50000000000006" x2="90" y2="147.50000000000006" stroke="black"/>
<text x="80" y="151.50000000000006" text-anchor="end" font-size="12" font-family="Arial">0.2101</text>
<line x1="90" y1="147.50000000000006" x2="720" y2="147.50000000000006" stroke="#ddd" stroke-width="0.5"/>
<line x1="84" y1="60.0" x2="90" y2="60.0" stroke="black"/>
<text x="80" y="64.0" text-anchor="end" font-size="12" font-family="Arial">0.2206</text>
<line x1="90" y1="60.0" x2="720" y2="60.0" stroke="#ddd" stroke-width="0.5"/>
<text x="405.0" y="458" text-anchor="middle" font-size="15" font-family="Arial">Round</text>
<text x="22" y="235.0" text-anchor="middle" font-size="15" font-family="Arial" transform="rotate(-90 22 235.0)">Force RMSE (eV/Å)</text>
<polyline points="90.00,189.75 405.00,372.17 720.00,376.13" fill="none" stroke="#1f77b4" stroke-width="2.5"/>
<circle cx="90.00" cy="189.75" r="5" fill="#1f77b4"/>
<circle cx="405.00" cy="372.17" r="5" fill="#1f77b4"/>
<circle cx="720.00" cy="376.13" r="5" fill="#1f77b4"/>
<line x1="470" y1="70" x2="495" y2="70" stroke="#1f77b4" stroke-width="2.5"/>
<text x="502" y="74" font-size="13" font-family="Arial">uncertainty</text>
<polyline points="90.00,265.30 405.00,140.14 720.00,93.87" fill="none" stroke="#d62728" stroke-width="2.5"/>
<circle cx="90.00" cy="265.30" r="5" fill="#d62728"/>
<circle cx="405.00" cy="140.14" r="5" fill="#d62728"/>
<circle cx="720.00" cy="93.87" r="5" fill="#d62728"/>
<line x1="470" y1="92" x2="495" y2="92" stroke="#d62728" stroke-width="2.5"/>
<text x="502" y="96" font-size="13" font-family="Arial">random</text>
<polyline points="90.00,263.82 405.00,261.55 720.00,321.48" fill="none" stroke="#2ca02c" stroke-width="2.5"/>
<circle cx="90.00" cy="263.82" r="5" fill="#2ca02c"/>
<circle cx="405.00" cy="261.55" r="5" fill="#2ca02c"/>
<circle cx="720.00" cy="321.48" r="5" fill="#2ca02c"/>
<line x1="470" y1="114" x2="495" y2="114" stroke="#2ca02c" stroke-width="2.5"/>
<text x="502" y="118" font-size="13" font-family="Arial">diversity</text>
<polyline points="90.00,248.77 405.00,237.20 720.00,259.28" fill="none" stroke="#ff7f0e" stroke-width="2.5"/>
<circle cx="90.00" cy="248.77" r="5" fill="#ff7f0e"/>
<circle cx="405.00" cy="237.20" r="5" fill="#ff7f0e"/>
<circle cx="720.00" cy="259.28" r="5" fill="#ff7f0e"/>
<line x1="470" y1="136" x2="495" y2="136" stroke="#ff7f0e" stroke-width="2.5"/>
<text x="502" y="140" font-size="13" font-family="Arial">trust_level</text>
</svg>