<svg xmlns="http://www.w3.org/2000/svg" width="760" height="480" viewBox="0 0 760 480">
<rect width="100%" height="100%" fill="white"/>
<text x="380.0" y="32" text-anchor="middle" font-size="20" font-family="Arial">rMD17 Ethanol — Force RMSE: Validation vs Independent Test (Uncertainty)</text>
<line x1="90" y1="60" x2="90" y2="410" stroke="black" stroke-width="1.5"/>
<line x1="90" y1="410" x2="720" y2="410" stroke="black" stroke-width="1.5"/>
<line x1="90.0" y1="410" x2="90.0" y2="416" stroke="black"/>
<text x="90.0" y="435" text-anchor="middle" font-size="13" font-family="Arial">0</text>
<line x1="300.0" y1="410" x2="300.0" y2="416" stroke="black"/>
<text x="300.0" y="435" text-anchor="middle" font-size="13" font-family="Arial">1</text>
<line x1="510.0" y1="410" x2="510.0" y2="416" stroke="black"/>
<text x="510.0" y="435" text-anchor="middle" font-size="13" font-family="Arial">2</text>
<line x1="720.0" y1="410" x2="720.0" y2="416" stroke="black"/>
<text x="720.0" y="435" text-anchor="middle" font-size="13" font-family="Arial">3</text>
<line x1="84" y1="410.0" x2="90" y2="410.0" stroke="black"/>
<text x="80" y="414.0" text-anchor="end" font-size="12" font-family="Arial">0.3209</text>
<line x1="90" y1="410.0" x2="720" y2="410.0" stroke="#dddddd" stroke-width="0.5"/>
<line x1="84" y1="322.49999999999983" x2="90" y2="322.49999999999983" stroke="black"/>
<text x="80" y="326.49999999999983" text-anchor="end" font-size="12" font-family="Arial">0.3356</text>
<line x1="90" y1="322.49999999999983" x2="720" y2="322.49999999999983" stroke="#dddddd" stroke-width="0.5"/>
<line x1="84" y1="235.0" x2="90" y2="235.0" stroke="black"/>
<text x="80" y="239.0" text-anchor="end" font-size="12" font-family="Arial">0.3503</text>
<line x1="90" y1="235.0" x2="720" y2="235.0" stroke="#dddddd" stroke-width="0.5"/>
<line x1="84" y1="147.50000000000017" x2="90" y2="147.50000000000017" stroke="black"/>
<text x="80" y="151.50000000000017" text-anchor="end" font-size="12" font-family="Arial">0.3649</text>
<line x1="90" y1="147.50000000000017" x2="720" y2="147.50000000000017" stroke="#dddddd" stroke-width="0.5"/>
<line x1="84" y1="60.0" x2="90" y2="60.0" stroke="black"/>
<text x="80" y="64.0" text-anchor="end" font-size="12" font-family="Arial">0.3796</text>
<line x1="90" y1="60.0" x2="720" y2="60.0" stroke="#dddddd" stroke-width="0.5"/>
<text x="405.0" y="460" text-anchor="middle" font-size="15" font-family="Arial">Active learning round</text>
<text x="22" y="235.0" text-anchor="middle" font-size="15" font-family="Arial" transform="rotate(-90 22 235.0)">Force RMSE (eV/Å)</text>
<polyline points="90.00,93.87 300.00,108.30 510.00,150.37 720.00,214.42" fill="none" stroke="#1f77b4" stroke-width="2.5"/>
<circle cx="90.00" cy="93.87" r="5" fill="#1f77b4"/>
<circle cx="300.00" cy="108.30" r="5" fill="#1f77b4"/>
<circle cx="510.00" cy="150.37" r="5" fill="#1f77b4"/>
<circle cx="720.00" cy="214.42" r="5" fill="#1f77b4"/>
<line x1="500" y1="70" x2="525" y2="70" stroke="#1f77b4" stroke-width="2.5"/>
<text x="532" y="74" font-size="13" font-family="Arial">Validation (5000 frames)</text>
<polyline points="90.00,272.81 300.00,276.45 510.00,324.50 720.00,376.13" fill="none" stroke="#d62728" stroke-width="2.5"/>
<circle cx="90.00" cy="272.81" r="5" fill="#d62728"/>
<circle cx="300.00" cy="276.45" r="5" fill="#d62728"/>
<circle cx="510.00" cy="324.50" r="5" fill="#d62728"/>
<circle cx="720.00" cy="376.13" r="5" fill="#d62728"/>
<line x1="500" y1="92" x2="525" y2="92" stroke="#d62728" stroke-width="2.5"/>
<text x="532" y="96" font-size="13" font-family="Arial">Independent Test (10000 frames)</text>
</svg>