<svg xmlns="http://www.w3.org/2000/svg" width="760" height="480" viewBox="0 0 760 480">
<rect width="100%" height="100%" fill="white"/>
<text x="380.0" y="32" text-anchor="middle" font-size="20" font-family="Arial">rMD17 Ethanol — Dataset size evolution</text>
<line x1="90" y1="60" x2="90" y2="410" stroke="black" stroke-width="1.5"/>
<line x1="90" y1="410" x2="720" y2="410" stroke="black" stroke-width="1.5"/>
<line x1="90.0" y1="410" x2="90.0" y2="416" stroke="black"/>
<text x="90.0" y="435" text-anchor="middle" font-size="13" font-family="Arial">0</text>
<line x1="300.0" y1="410" x2="300.0" y2="416" stroke="black"/>
<text x="300.0" y="435" text-anchor="middle" font-size="13" font-family="Arial">1</text>
<line x1="510.0" y1="410" x2="510.0" y2="416" stroke="black"/>
<text x="510.0" y="435" text-anchor="middle" font-size="13" font-family="Arial">2</text>
<line x1="720.0" y1="410" x2="720.0" y2="416" stroke="black"/>
<text x="720.0" y="435" text-anchor="middle" font-size="13" font-family="Arial">3</text>
<line x1="84" y1="410.0" x2="90" y2="410.0" stroke="black"/>
<text x="80" y="414.0" text-anchor="end" font-size="12" font-family="Arial">-6.08e+03</text>
<line x1="90" y1="410.0" x2="720" y2="410.0" stroke="#dddddd" stroke-width="0.5"/>
<line x1="84" y1="322.5" x2="90" y2="322.5" stroke="black"/>
<text x="80" y="326.5" text-anchor="end" font-size="12" font-family="Arial">1.22e+04</text>
<line x1="90" y1="322.5" x2="720" y2="322.5" stroke="#dddddd" stroke-width="0.5"/>
<line x1="84" y1="235.0" x2="90" y2="235.0" stroke="black"/>
<text x="80" y="239.0" text-anchor="end" font-size="12" font-family="Arial">3.05e+04</text>
<line x1="90" y1="235.0" x2="720" y2="235.0" stroke="#dddddd" stroke-width="0.5"/>
<line x1="84" y1="147.5" x2="90" y2="147.5" stroke="black"/>
<text x="80" y="151.5" text-anchor="end" font-size="12" font-family="Arial">4.88e+04</text>
<line x1="90" y1="147.5" x2="720" y2="147.5" stroke="#dddddd" stroke-width="0.5"/>
<line x1="84" y1="60.0" x2="90" y2="60.0" stroke="black"/>
<text x="80" y="64.0" text-anchor="end" font-size="12" font-family="Arial">6.71e+04</text>
<line x1="90" y1="60.0" x2="720" y2="60.0" stroke="#dddddd" stroke-width="0.5"/>
<text x="405.0" y="460" text-anchor="middle" font-size="15" font-family="Arial">Active learning round</text>
<text x="22" y="235.0" text-anchor="middle" font-size="15" font-family="Arial" transform="rotate(-90 22 235.0)">Number of frames</text>
<polyline points="90.00,376.13 300.00,371.34 510.00,366.56 720.00,361.78" fill="none" stroke="#1f77b4" stroke-width="2.5"/>
<circle cx="90.00" cy="376.13" r="5" fill="#1f77b4"/>
<circle cx="300.00" cy="371.34" r="5" fill="#1f77b4"/>
<circle cx="510.00" cy="366.56" r="5" fill="#1f77b4"/>
<circle cx="720.00" cy="361.78" r="5" fill="#1f77b4"/>
<line x1="550" y1="70" x2="575" y2="70" stroke="#1f77b4" stroke-width="2.5"/>
<text x="582" y="74" font-size="13" font-family="Arial">Training frames</text>
<polyline points="90.00,93.87 300.00,98.66 510.00,103.44 720.00,108.22" fill="none" stroke="#d62728" stroke-width="2.5"/>
<circle cx="90.00" cy="93.87" r="5" fill="#d62728"/>
<circle cx="300.00" cy="98.66" r="5" fill="#d62728"/>
<circle cx="510.00" cy="103.44" r="5" fill="#d62728"/>
<circle cx="720.00" cy="108.22" r="5" fill="#d62728"/>
<line x1="550" y1="92" x2="575" y2="92" stroke="#d62728" stroke-width="2.5"/>
<text x="582" y="96" font-size="13" font-family="Arial">Candidate frames</text>
</svg>